<svg width="360" height="222" viewBox="0 0 360 222" fill="none" xmlns="http://www.w3.org/2000/svg">
<path fill-rule="evenodd" clip-rule="evenodd" d="M-10 19.5C-4.99999 15.5 -2.50001 25.5843 -3.8147e-06 26.5843C2.5 27.5843 22 18.2983 51 19.5C80 20.7017 80 31.9136 120 29.5605C160 27.2075 203.5 10.113 243.5 1.87735C283.5 -6.3583 320 14.8191 340 20.7017L360 26.5843V221.5H334.5C314.5 221.5 283.5 221.5 243.5 221.5C203.5 221.5 160 221.5 120 221.5C80 221.5 40 221.5 20 221.5H-3.8147e-06C-3.8147e-06 221.5 -15 23.5 -10 19.5Z" fill="#0099FF" fill-opacity="0.88"/>
</svg>
