<svg width="1920" height="500" viewBox="0 0 1920 500" fill="none" xmlns="http://www.w3.org/2000/svg">
<path fill-rule="evenodd" clip-rule="evenodd" d="M0 250L46.4 239.583C91.2 229.167 182.4 208.333 273.6 166.667C366.4 125 457.6 62.5 548.8 52.0833C640 41.6667 731.2 83.3333 822.4 125C913.6 166.667 951.5 113.5 1114 144.5C1276.5 175.5 1371.2 166.667 1371.2 166.667C1371.2 166.667 1553.6 166.667 1646.4 104.167C1737.6 41.6667 1828.8 20.8333 1873.6 10.4167L1920 0V500H1873.6C1828.8 500 1737.6 500 1646.4 500C1553.6 500 1462.4 500 1371.2 500C1280 500 1188.8 500 1097.6 500C1006.4 500 913.6 500 822.4 500C731.2 500 640 500 548.8 500C457.6 500 366.4 500 273.6 500C182.4 500 91.2 500 46.4 500H0V250Z" fill="#0099FF"/>
</svg>
